<?xml version="1.0" encoding="UTF-8" standalone="no" ?>
<!DOCTYPE svg PUBLIC "-//W3C//DTD SVG 1.1//EN" "http://www.w3.org/Graphics/SVG/1.1/DTD/svg11.dtd">
<svg xmlns="http://www.w3.org/2000/svg" xmlns:xlink="http://www.w3.org/1999/xlink" version="1.1" width="1080" height="1080" viewBox="0 0 1080 1080" xml:space="preserve">
<desc>Created with Fabric.js 4.2.0</desc>
<defs>
</defs>
<g transform="matrix(1 0 0 1 540 540)" id="14e4045d-3505-40c1-8295-cc8d1e7a5335"  >
<rect style="stroke: none; stroke-width: 1; stroke-dasharray: none; stroke-linecap: butt; stroke-dashoffset: 0; stroke-linejoin: miter; stroke-miterlimit: 4; fill: rgb(255,255,255); fill-rule: nonzero; opacity: 1;" vector-effect="non-scaling-stroke"  x="-540" y="-540" rx="0" ry="0" width="1080" height="1080" />
</g>
<g transform="matrix(Infinity NaN NaN Infinity 0 0)" id="817e2cfc-0c81-451e-a0e5-62ee4dd9678a"  >
</g>
<g transform="matrix(1 0 0 1 524.69 540)"  >
<g style="" vector-effect="non-scaling-stroke"   >
		<g transform="matrix(0.66 0 0 0.66 -42.54 -31.3)"  >
<path style="stroke: none; stroke-width: 1; stroke-dasharray: none; stroke-linecap: butt; stroke-dashoffset: 0; stroke-linejoin: miter; stroke-miterlimit: 4; fill: rgb(255,255,255); fill-rule: nonzero; opacity: 1;" vector-effect="non-scaling-stroke"  transform=" translate(-425.39, -283.64)" d="M 340.61426 373.76129 L 315.83978 401.533 C 336.42115 410.26323 357.25487000000004 398.14345000000003 365.79499000000004 392.06715 C 423.02913672821546 423.51768482927827 494.85156620215344 405.0713214772072 529.8469018962498 349.93322056312024 C 564.8422375903464 294.79511964903327 550.959345478161 221.95285854288116 498.13654330305013 183.55187856679672 C 445.31374112793924 145.15089859071227 371.7413007086638 154.4151150825476 330.0873753473105 204.7125722225 C 288.4334499859573 255.0100293624524 293.04215232784907 329.02009326716245 340.61426000000006 373.76133 Z" stroke-linecap="round" />
</g>
		<g transform="matrix(0.66 0 0 0.66 -52.78 -46.86)"  >
<path style="stroke: none; stroke-width: 1; stroke-dasharray: none; stroke-linecap: butt; stroke-dashoffset: 0; stroke-linejoin: miter; stroke-miterlimit: 4; fill: rgb(255,255,255); fill-rule: nonzero; opacity: 1;" vector-effect="non-scaling-stroke"  transform=" translate(-409.74, -256.95)" d="M 358.625 263.3428 C 384.18354 263.07668 409.73883 262.61974000000004 435.29622 262.27254 Q 448.07658 262.09891999999996 460.85747000000003 261.96815 C 468.19909 261.89171 468.21786000000003 250.47541999999999 460.85747000000003 250.55204999999998 C 435.29893000000004 250.81816999999998 409.74363000000005 251.27510999999998 384.18624000000005 251.62230999999997 Q 371.4058800000001 251.79592999999997 358.62500000000006 251.92669999999998 C 351.2833800000001 252.00313999999997 351.26461000000006 263.41943 358.62500000000006 263.3428 Z" stroke-linecap="round" />
</g>
		<g transform="matrix(0.66 0 0 0.66 -42.74 -31.15)"  >
<path style="stroke: none; stroke-width: 1; stroke-dasharray: none; stroke-linecap: butt; stroke-dashoffset: 0; stroke-linejoin: miter; stroke-miterlimit: 4; fill: rgb(255,255,255); fill-rule: nonzero; opacity: 1;" vector-effect="non-scaling-stroke"  transform=" translate(-424.96, -283.58)" d="M 358.625 289.98037 L 461.92228 288.91011 L 491.3004 288.60571999999996 C 498.64205000000004 288.52966 498.66079 277.11335999999994 491.3004 277.18962 L 388.00313000000006 278.25988 L 358.62500000000006 278.56427 C 351.28335000000004 278.64033 351.26462000000004 290.05663000000004 358.62500000000006 289.98037 Z" stroke-linecap="round" />
</g>
		<g transform="matrix(0.66 0 0 0.66 -42.74 -13.53)"  >
<path style="stroke: none; stroke-width: 1; stroke-dasharray: none; stroke-linecap: butt; stroke-dashoffset: 0; stroke-linejoin: miter; stroke-miterlimit: 4; fill: rgb(255,255,255); fill-rule: nonzero; opacity: 1;" vector-effect="non-scaling-stroke"  transform=" translate(-424.96, -310.22)" d="M 358.625 316.61794 L 461.92228 315.54767999999996 L 491.3004 315.24328999999994 C 498.64205000000004 315.16722999999996 498.66079 303.7509299999999 491.3004 303.82719 L 388.00313000000006 304.89745 L 358.62500000000006 305.20183 C 351.28335000000004 305.2779 351.26462000000004 316.69419999999997 358.62500000000006 316.61794 Z" stroke-linecap="round" />
</g>
		<g transform="matrix(0.66 0 0 0.66 -136.55 56.81)"  >
<circle style="stroke: none; stroke-width: 1; stroke-dasharray: none; stroke-linecap: butt; stroke-dashoffset: 0; stroke-linejoin: miter; stroke-miterlimit: 4; fill: rgb(230,230,230); fill-rule: nonzero; opacity: 1;" vector-effect="non-scaling-stroke"  cx="0" cy="0" r="9" />
</g>
		<g transform="matrix(0.66 0 0 0.66 60.98 31.45)"  >
<path style="stroke: none; stroke-width: 1; stroke-dasharray: none; stroke-linecap: butt; stroke-dashoffset: 0; stroke-linejoin: miter; stroke-miterlimit: 4; fill: rgb(255,173,51); fill-rule: nonzero; opacity: 1;" vector-effect="non-scaling-stroke"  transform=" translate(-581.85, -378.49)" d="M 705.34811 378.44867 C 705.3262191020236 322.8137049896951 668.1062586355923 274.06210272503915 614.4436179615087 259.37977297824995 C 560.7809772874252 244.69744323146074 503.92609821767815 267.70976398488233 475.58361281973663 315.58411340476204 C 447.2411274217951 363.4584628246417 454.4093952406812 424.3736507252846 493.0910936635008 464.3608489021424 C 531.7727920863205 504.3480470790001 592.4165910312499 513.5335699286205 641.2049999999999 486.79519000000005 C 649.74512 492.87149 670.57884 504.99127 691.16021 496.26105 L 666.38573 468.48937 C 691.2795891513412 445.1648779991694 705.3873978533773 412.56222459356593 705.34811 378.44867 Z" stroke-linecap="round" />
</g>
		<g transform="matrix(0.66 0 0 0.66 53.09 13.89)"  >
<path style="stroke: none; stroke-width: 1; stroke-dasharray: none; stroke-linecap: butt; stroke-dashoffset: 0; stroke-linejoin: miter; stroke-miterlimit: 4; fill: rgb(255,255,255); fill-rule: nonzero; opacity: 1;" vector-effect="non-scaling-stroke"  transform=" translate(-569.76, -351.68)" d="M 518.64809 358.07088 C 544.20663 357.80476999999996 569.76192 357.34782 595.3193100000001 357.00061999999997 Q 608.0996700000001 356.82698999999997 620.8805500000001 356.69624 C 628.2221800000001 356.6198 628.2409500000001 345.20349999999996 620.8805500000001 345.28013 C 595.3220200000001 345.54625 569.7667200000001 346.00318999999996 544.2093300000001 346.35039 Q 531.4289700000002 346.52401000000003 518.6480900000001 346.65478 C 511.30647000000016 346.73122 511.28770000000014 358.14751 518.6480900000001 358.07088 Z" stroke-linecap="round" />
</g>
		<g transform="matrix(0.66 0 0 0.66 63.13 31.52)"  >
<path style="stroke: none; stroke-width: 1; stroke-dasharray: none; stroke-linecap: butt; stroke-dashoffset: 0; stroke-linejoin: miter; stroke-miterlimit: 4; fill: rgb(255,255,255); fill-rule: nonzero; opacity: 1;" vector-effect="non-scaling-stroke"  transform=" translate(-584.99, -378.31)" d="M 518.64809 384.70845 L 621.94537 383.63819 L 651.32349 383.3338 C 658.66514 383.25774 658.68387 371.84144 651.32349 371.91769999999997 L 548.02621 372.988 L 518.64809 373.29239 C 511.30644 373.36845 511.28771 384.78475000000003 518.64809 384.70849 Z" stroke-linecap="round" />
</g>
		<g transform="matrix(0.66 0 0 0.66 63.13 49.14)"  >
<path style="stroke: none; stroke-width: 1; stroke-dasharray: none; stroke-linecap: butt; stroke-dashoffset: 0; stroke-linejoin: miter; stroke-miterlimit: 4; fill: rgb(255,255,255); fill-rule: nonzero; opacity: 1;" vector-effect="non-scaling-stroke"  transform=" translate(-584.99, -404.95)" d="M 518.64809 411.346 L 621.94537 410.27574 L 651.32349 409.97135 C 658.66514 409.89529 658.68387 398.47898999999995 651.32349 398.55525 L 548.02621 399.62551 L 518.64809 399.92990000000003 C 511.30644 400.00596 511.28771 411.42226000000005 518.64809 411.346 Z" stroke-linecap="round" />
</g>
</g>
</g>
</svg>